<?xml version="1.0" standalone="no"?>
<!DOCTYPE svg PUBLIC "-//W3C//DTD SVG 20010904//EN"
 "http://www.w3.org/TR/2001/REC-SVG-20010904/DTD/svg10.dtd">
<svg version="1.0" xmlns="http://www.w3.org/2000/svg"
 width="700.000000pt" height="700.000000pt" viewBox="0 0 700.000000 700.000000"
 preserveAspectRatio="xMidYMid meet">
<metadata>
Created by potrace 1.14, written by Peter Selinger 2001-2017
</metadata>
<g transform="translate(0.000000,700.000000) scale(0.100000,-0.100000)"
fill="#000000" stroke="none">
<path d="M2821 4613 c13 -21 137 -217 276 -437 l253 -399 0 -314 0 -313 150 0
150 0 0 316 0 317 169 266 c92 146 216 341 274 434 l107 167 -177 -2 -176 -3
-164 -280 c-90 -154 -167 -286 -171 -293 -5 -7 -72 96 -182 283 l-175 294
-178 1 -179 0 23 -37z"/>
<path d="M5670 4387 l0 -264 -42 40 c-23 22 -67 52 -97 66 -50 23 -68 26 -167
26 -107 0 -112 -1 -186 -38 -125 -61 -205 -170 -244 -333 -23 -94 -24 -287 -1
-374 42 -160 136 -282 264 -343 64 -30 74 -32 183 -32 137 0 180 16 260 98
l50 51 0 -67 0 -67 85 0 85 0 0 750 0 750 -95 0 -95 0 0 -263z m-199 -288 c48
-17 106 -61 139 -106 87 -118 105 -405 34 -550 -30 -63 -107 -135 -162 -151
-156 -47 -306 46 -358 220 -28 94 -26 289 4 384 49 160 202 250 343 203z"/>
<path d="M1498 4241 c-64 -21 -146 -77 -174 -119 l-19 -27 -5 70 -5 70 -82 3
-83 3 0 -546 0 -545 89 0 89 0 4 358 c5 401 9 430 75 503 52 57 104 81 189 87
85 5 132 -8 181 -51 68 -60 68 -58 71 -499 l3 -398 90 0 89 0 0 414 c0 391 -1
418 -21 481 -26 87 -88 152 -175 185 -83 32 -236 38 -316 11z"/>
</g>
</svg>
