<?xml version="1.0" standalone="no"?>
<!DOCTYPE svg PUBLIC "-//W3C//DTD SVG 20010904//EN"
 "http://www.w3.org/TR/2001/REC-SVG-20010904/DTD/svg10.dtd">
<svg version="1.0" xmlns="http://www.w3.org/2000/svg"
 width="1024.000000pt" height="1024.000000pt" viewBox="0 0 1024.000000 1024.000000"
 preserveAspectRatio="xMidYMid meet">
<metadata>
Created by potrace 1.14, written by Peter Selinger 2001-2017
</metadata>
<g transform="translate(0.000000,1024.000000) scale(0.100000,-0.100000)"
fill="#000000" stroke="none">
<path d="M20 10230 c0 -7 1710 -10 5110 -10 3400 0 5110 3 5110 10 0 7 -1710
10 -5110 10 -3400 0 -5110 -3 -5110 -10z"/>
<path d="M3169 6968 c60 -95 422 -668 805 -1273 l696 -1100 0 -927 0 -928 445
0 445 0 0 924 0 924 805 1270 c443 699 805 1273 805 1276 0 3 -229 6 -508 6
l-509 0 -508 -871 -508 -871 -201 339 c-110 186 -343 576 -516 868 l-316 530
-522 3 -522 2 109 -172z"/>
<path d="M8676 6183 c-4 -9 -6 -238 -6 -507 0 -270 1 -495 0 -500 0 -5 -35 24
-77 66 -177 171 -419 235 -677 178 -193 -43 -331 -119 -450 -248 -192 -208
-293 -574 -266 -963 19 -261 89 -463 225 -643 91 -122 216 -219 356 -276 118
-49 181 -61 323 -63 223 -3 351 47 499 195 48 48 90 88 92 88 2 0 6 -53 7
-117 l3 -118 165 0 165 0 0 1460 0 1460 -176 3 c-159 2 -177 1 -183 -15z
m-416 -1060 c98 -23 137 -47 230 -142 100 -101 137 -169 174 -317 37 -149 50
-315 37 -465 -22 -260 -70 -387 -195 -517 -107 -112 -213 -156 -371 -155 -121
1 -187 21 -280 87 -207 148 -286 346 -286 721 0 326 52 504 190 648 83 88 184
139 306 155 68 10 102 7 195 -15z"/>
<path d="M2050 5439 c-178 -22 -308 -87 -442 -220 l-98 -97 0 139 0 139 -165
0 -165 0 0 -1065 0 -1065 180 0 180 0 0 593 c0 325 5 642 10 702 24 267 106
413 282 499 246 121 540 64 642 -124 62 -113 60 -84 63 -912 l4 -758 184 0
185 0 0 734 c0 436 -4 775 -10 835 -29 276 -139 439 -365 538 -133 58 -323 83
-485 62z"/>
</g>
</svg>
